<svg xmlns="http://www.w3.org/2000/svg" xmlns:xlink="http://www.w3.org/1999/xlink" width="72" height="64" viewBox="0 0 72 64">
  <defs>
    <clipPath id="clip-path">
      <rect id="Rectangle_60" data-name="Rectangle 60" width="72" height="64" transform="translate(53 718)" fill="#fff" stroke="#707070" stroke-width="1"/>
    </clipPath>
  </defs>
  <g id="Mask_Group_9" data-name="Mask Group 9" transform="translate(-53 -718)" clip-path="url(#clip-path)">
    <g id="leao" transform="translate(55.968 716.968)">
      <path id="Path_129" data-name="Path 129" d="M59.983,45.792a5.455,5.455,0,0,0-4.317-2.423,17.06,17.06,0,0,0-4.242-9.846,6.347,6.347,0,0,0,1.22-3.749,6.411,6.411,0,0,0-.328-2.025l-.276-.828a2.685,2.685,0,0,1,1.746,1.411,1.045,1.045,0,0,0,1,.568,1.033,1.033,0,0,0,.906-.7,21.118,21.118,0,0,0,1.085-6.686v-.227l.571.285a1.032,1.032,0,0,0,1.494-.923A18.755,18.755,0,0,0,54.953,9.238L56.6,6.766a1.032,1.032,0,0,0-.533-1.551,21.09,21.09,0,0,0-6.655-1.086l.994-1.492a1.032,1.032,0,0,0-.859-1.605H48.516a16.632,16.632,0,0,0-9.29,2.861,16.632,16.632,0,0,0-9.29-2.861H28.9a1.032,1.032,0,0,0-.859,1.6l.994,1.493a21.109,21.109,0,0,0-6.655,1.085,1.032,1.032,0,0,0-.533,1.551L23.5,9.237a18.761,18.761,0,0,0-3.885,11.409,1.032,1.032,0,0,0,1.494.924l.571-.286v.227A21.124,21.124,0,0,0,22.762,28.2a1.033,1.033,0,0,0,.906.7,1.045,1.045,0,0,0,1-.568,2.688,2.688,0,0,1,1.746-1.411l-.276.828a6.382,6.382,0,0,0,.892,5.773,17.053,17.053,0,0,0-4.242,9.846,5.455,5.455,0,0,0-4.317,2.423c-.026.038-.043.081-.068.12A23.141,23.141,0,0,1,11.59,32.52l1.344-.672a4.613,4.613,0,0,0,.5-7.964,3.628,3.628,0,0,1-1.511-2.145l-.595-2.377a1.032,1.032,0,0,0-2,0l-.595,2.377a3.631,3.631,0,0,1-1.511,2.145,4.613,4.613,0,0,0,.5,7.964l1.579.79V40c0,6.148,3.4,11.008,8.682,12.5a5.485,5.485,0,0,0,1.765,2.3l1.613,1.21a.815.815,0,0,1-.147,1.391,2.861,2.861,0,0,0-1.592,2.573v.108a2.882,2.882,0,0,0,2.879,2.88h3.646a3.535,3.535,0,0,0,3.206,2.065h5.929a3.952,3.952,0,0,0,2.794-6.747A6.578,6.578,0,0,1,36.129,53.6v-.353a9.485,9.485,0,0,0-.682-3.542,20.011,20.011,0,0,0-4.457-6.759l-.324-.324-1.46,1.46.324.324a17.98,17.98,0,0,1,4,6.066,7.434,7.434,0,0,1,.535,2.776V53.6a8.629,8.629,0,0,0,2.543,6.142,1.871,1.871,0,0,1,.553,1.334,1.889,1.889,0,0,1-1.888,1.888H35.1V60.9H33.032v2.065H32V60.9H29.935v2.065h-.591a1.472,1.472,0,0,1-1.317-2.132l.5-1.006a3.559,3.559,0,0,0,.374-1.582,8.2,8.2,0,0,0-1.791-5.107,10.706,10.706,0,0,1-2.338-6.664V44.9a15.041,15.041,0,0,1,3.7-9.91,8.1,8.1,0,0,0,3.366,1.54,12.772,12.772,0,0,1,5.119,2.289l1.642,1.231a1.032,1.032,0,0,0,1.239,0l1.641-1.23a12.772,12.772,0,0,1,5.119-2.29,8.094,8.094,0,0,0,3.366-1.54,15.035,15.035,0,0,1,3.7,9.91v1.575a10.706,10.706,0,0,1-2.338,6.664,8.21,8.21,0,0,0-1.79,5.107,3.563,3.563,0,0,0,.374,1.582l.5,1.005a1.473,1.473,0,0,1-1.317,2.133h-.591V60.9H46.452v2.065H45.419V60.9H43.355v2.065h-.177a1.888,1.888,0,0,1-1.335-3.223A8.626,8.626,0,0,0,44.387,53.6v-.353a7.434,7.434,0,0,1,.535-2.776,17.95,17.95,0,0,1,4-6.066l.324-.324-1.46-1.46-.324.324A20.036,20.036,0,0,0,43,49.709a9.485,9.485,0,0,0-.682,3.542V53.6a6.582,6.582,0,0,1-1.939,4.682,3.951,3.951,0,0,0,2.794,6.746h5.929a3.535,3.535,0,0,0,3.206-2.065H55.96a2.882,2.882,0,0,0,2.879-2.879V59.98a2.872,2.872,0,0,0-1.614-2.586.815.815,0,0,1-.125-1.38L58.713,54.8a5.5,5.5,0,0,0,2.19-4.379v-1.6a5.459,5.459,0,0,0-.92-3.037ZM8.635,30a2.548,2.548,0,0,1-.275-4.4,5.685,5.685,0,0,0,1.962-2.243A5.685,5.685,0,0,0,12.285,25.6,2.548,2.548,0,0,1,12.01,30l-.628.314c-.015-.343-.028-.685-.028-1.03V27.871H9.29V30.33Zm2.72,10v-.747a25.19,25.19,0,0,0,6.259,8.738,5.609,5.609,0,0,0-.065.834v1.355C13.748,48.641,11.355,44.793,11.355,40ZM25.5,54.431a6.125,6.125,0,0,1,1.339,3.816,1.475,1.475,0,0,1-.156.659l-.5,1.006a3.53,3.53,0,0,0-.3.99H22.492a.814.814,0,0,1-.814-.813V59.98a.821.821,0,0,1,.473-.74,2.863,2.863,0,0,0,1.592-2.574,2.894,2.894,0,0,0-1.151-2.3l-1.613-1.21a3.43,3.43,0,0,1-1.365-2.728v-1.6a3.37,3.37,0,0,1,3.1-3.37v1.018a12.783,12.783,0,0,0,2.79,7.955ZM46.2,34.507a14.825,14.825,0,0,0-5.953,2.662l-1.022.766L38.2,37.169a14.821,14.821,0,0,0-5.954-2.661,6.071,6.071,0,0,1-3.108-1.663A4.34,4.34,0,0,1,28.094,28.4l.757-2.27a1.033,1.033,0,0,0-.98-1.358h-.789a4.75,4.75,0,0,0-2.869.954,19.033,19.033,0,0,1-.472-4.218v-1.9a1.032,1.032,0,0,0-1.494-.924l-.481.241a16.7,16.7,0,0,1,3.553-8.67l.26-.325a1.031,1.031,0,0,0,.053-1.217l-1.287-1.93a19.062,19.062,0,0,1,4.725-.594h1.9a1.032,1.032,0,0,0,.859-1.6l-.974-1.463a14.556,14.556,0,0,1,7.754,2.86,1.031,1.031,0,0,0,1.239,0A14.561,14.561,0,0,1,47.6,3.127l-.974,1.463a1.032,1.032,0,0,0,.859,1.6h1.9a19.056,19.056,0,0,1,4.725.594l-1.287,1.93a1.031,1.031,0,0,0,.053,1.217l.26.325a16.7,16.7,0,0,1,3.553,8.67l-.481-.241a1.032,1.032,0,0,0-1.494.924v1.9a19.026,19.026,0,0,1-.472,4.218,4.75,4.75,0,0,0-2.869-.954h-.789a1.034,1.034,0,0,0-.98,1.359l.757,2.269a4.34,4.34,0,0,1-1.048,4.442A6.07,6.07,0,0,1,46.2,34.507ZM58.839,50.425a3.427,3.427,0,0,1-1.364,2.727l-1.613,1.211a2.878,2.878,0,0,0,.462,4.889.809.809,0,0,1,.45.728v.108a.816.816,0,0,1-.814.815H52.576a3.537,3.537,0,0,0-.3-.991l-.5-1.005a1.483,1.483,0,0,1-.156-.66,6.13,6.13,0,0,1,1.339-3.817,12.778,12.778,0,0,0,2.79-7.954V45.459a3.37,3.37,0,0,1,3.1,3.37Z"/>
      <path id="Path_130" data-name="Path 130" d="M51.613,18.581a8.2,8.2,0,0,0-.553-2.946,4.126,4.126,0,1,0-6.2-5.167,8.162,8.162,0,0,0-5.638.965,8.162,8.162,0,0,0-5.638-.965,4.126,4.126,0,1,0-6.2,5.167A8.224,8.224,0,0,0,31.37,25.949a4.856,4.856,0,0,0-.4,1.922c0,3.416,3.7,6.194,8.258,6.194s8.258-2.778,8.258-6.194a4.856,4.856,0,0,0-.4-1.922,8.235,8.235,0,0,0,4.532-7.368Zm-3.1-8.258a2.067,2.067,0,0,1,2.065,2.065,2.042,2.042,0,0,1-.543,1.362,8.3,8.3,0,0,0-3.154-2.623A2.067,2.067,0,0,1,48.516,10.323ZM27.871,12.387a2.063,2.063,0,0,1,3.7-1.261,8.3,8.3,0,0,0-3.154,2.623A2.042,2.042,0,0,1,27.871,12.387Zm10.323,13.44a7.315,7.315,0,0,1,.751-.02h.562a7.026,7.026,0,0,1,.751.02c-.009.845-.7,2-1.029,2.047C38.9,27.829,38.2,26.671,38.194,25.827Zm7.089-1.363a1.031,1.031,0,0,0-.507,1.6,2.994,2.994,0,0,1,.644,1.809c0,2-2.275,3.725-5.161,4.064V29.643a4.743,4.743,0,0,0,2.065-3.835,1.988,1.988,0,0,0-.548-1.471,3.008,3.008,0,0,0-2.283-.595h-.53a2.992,2.992,0,0,0-2.283.595,1.986,1.986,0,0,0-.549,1.471,4.743,4.743,0,0,0,2.065,3.835v2.292c-2.886-.34-5.161-2.06-5.161-4.064a2.989,2.989,0,0,1,.644-1.807,1.031,1.031,0,0,0-.507-1.6A6.192,6.192,0,1,1,38.635,13.5a1.033,1.033,0,0,0,1.182,0,6.191,6.191,0,1,1,5.465,10.963Z"/>
      <path id="Path_131" data-name="Path 131" d="M34.065,15.484a3.1,3.1,0,0,0-3.1,3.1h2.065a1.032,1.032,0,1,1,2.065,0h2.065A3.1,3.1,0,0,0,34.065,15.484Z"/>
      <path id="Path_132" data-name="Path 132" d="M44.387,15.484a3.1,3.1,0,0,0-3.1,3.1h2.065a1.032,1.032,0,1,1,2.065,0h2.065A3.1,3.1,0,0,0,44.387,15.484Z"/>
    </g>
  </g>
</svg>
